Hanif_Deep_2_5_grf.mot
version=1
nRows=53
nColumns=19
inDegrees=yes
endheader
time	right_ground_force_vx	right_ground_force_vy	right_ground_force_vz	right_ground_force_px	right_ground_force_py	right_ground_force_pz	right_ground_torque_x	right_ground_torque_y	right_ground_torque_z	left_ground_force_vx	left_ground_force_vy	left_ground_force_vz	left_ground_force_px	left_ground_force_py	left_ground_force_pz	left_ground_torque_x	left_ground_torque_y	left_ground_torque_z
0.610000	-2.587370	213.655000	23.878600	0.226898	0.000000	-1.418710	-18.662100	0.190292	5.865160	-5.287310	243.493000	-25.479000	0.222652	0.000000	-0.969111	16.199800	-3.780780	6.008290
0.615000	-3.555360	219.621000	22.908800	0.228189	0.000000	-1.418980	-19.130200	0.254604	6.317020	-6.676230	251.926000	-26.066400	0.223092	0.000000	-0.967465	16.366700	-3.734400	6.310730
0.620000	-4.271330	224.822000	21.388400	0.227858	0.000000	-1.420150	-19.322200	0.196728	6.373450	-7.302670	255.598000	-26.128900	0.224236	0.000000	-0.967681	16.669000	-3.677470	6.683580
0.625000	-5.197160	226.305000	20.856200	0.229485	0.000000	-1.418610	-19.805000	0.122450	6.782530	-7.286120	257.459000	-26.120600	0.225425	0.000000	-0.969159	17.170900	-3.722120	7.039930
0.630000	-6.266970	231.526000	19.527500	0.229256	0.000000	-1.419520	-20.052000	-0.025738	6.865160	-6.935800	260.769000	-26.845500	0.226582	0.000000	-0.969209	17.399800	-3.881730	7.452180
0.635000	-6.680530	237.806000	19.173200	0.229645	0.000000	-1.418040	-20.948200	-0.085343	7.136130	-5.387280	263.710000	-26.799500	0.227758	0.000000	-0.969339	17.597600	-3.957460	7.834020
0.640000	-8.255930	241.556000	18.842600	0.230711	0.000000	-1.416570	-21.642600	-0.125814	7.511290	-4.593940	271.781000	-27.457400	0.228156	0.000000	-0.968793	17.970300	-4.197100	8.185020
0.645000	-9.235820	249.711000	18.051700	0.230558	0.000000	-1.416010	-22.517500	-0.132624	7.720990	-4.591940	275.439000	-27.723800	0.228772	0.000000	-0.969778	18.482600	-4.254070	8.464380
0.650000	-10.092900	253.101000	17.261800	0.231139	0.000000	-1.417570	-22.434600	-0.084381	7.972990	-4.251520	279.844000	-28.461100	0.228539	0.000000	-0.969735	18.760800	-4.522390	8.557830
0.655000	-9.860090	257.517000	17.074500	0.230986	0.000000	-1.416560	-23.081500	-0.105387	8.065950	-3.853980	282.093000	-27.378000	0.229820	0.000000	-0.969420	18.815600	-4.699700	8.972230
0.660000	-9.371890	263.811000	16.533600	0.230231	0.000000	-1.417830	-23.308300	0.032809	8.060510	-3.217790	282.828000	-27.667000	0.230344	0.000000	-0.970042	19.028300	-4.823720	9.157210
0.665000	-9.209240	267.505000	16.883600	0.230083	0.000000	-1.416910	-23.883500	0.154821	8.140950	-2.287360	285.048000	-26.880200	0.230442	0.000000	-0.970362	19.248900	-4.942060	9.235310
0.670000	-8.972490	272.340000	16.711400	0.229774	0.000000	-1.419090	-23.720800	0.310355	8.206160	-0.844491	285.421000	-27.377400	0.230954	0.000000	-0.970802	19.369900	-5.133720	9.414190
0.675000	-8.992960	276.064000	16.723300	0.228930	0.000000	-1.419910	-23.820700	0.414636	8.087790	0.413456	288.716000	-27.153900	0.230353	0.000000	-0.969553	19.206000	-5.412210	9.347430
0.680000	-9.457150	281.279000	17.469300	0.227037	0.000000	-1.420530	-24.098600	0.428709	7.711060	1.799360	288.752000	-26.560600	0.230968	0.000000	-0.970273	19.385900	-5.604970	9.522240
0.685000	-9.628340	283.168000	18.110900	0.228057	0.000000	-1.420480	-24.281200	0.604137	8.068590	3.235690	291.673000	-27.058700	0.230810	0.000000	-0.970633	19.655400	-5.806800	9.582260
0.690000	-10.119600	288.027000	17.859300	0.227400	0.000000	-1.421800	-24.319700	0.599962	8.012450	3.801720	293.174000	-26.254900	0.231949	0.000000	-0.969712	19.471800	-6.069430	9.962540
0.695000	-10.183600	289.926000	19.229900	0.226592	0.000000	-1.422370	-24.321700	0.776625	7.851580	5.255940	295.017000	-25.860500	0.231059	0.000000	-0.970029	19.656300	-6.194890	9.745620
0.700000	-9.645930	293.633000	19.952400	0.225628	0.000000	-1.422630	-24.552300	0.879115	7.674280	5.722630	295.405000	-25.420000	0.231190	0.000000	-0.970267	19.738200	-6.449300	9.803730
0.705000	-9.294590	299.586000	20.864300	0.225040	0.000000	-1.423980	-24.641300	0.929587	7.655850	6.556540	299.080000	-24.637100	0.231249	0.000000	-0.969899	19.856000	-6.601800	9.916970
0.710000	-9.460560	302.216000	21.783000	0.224490	0.000000	-1.424590	-24.675800	1.054780	7.571400	7.360640	301.661000	-24.843200	0.231033	0.000000	-0.969245	19.808700	-6.884320	9.951670
0.715000	-8.670870	305.925000	21.866400	0.223331	0.000000	-1.425570	-24.681200	1.417250	7.325270	7.918680	302.774000	-24.046600	0.230771	0.000000	-0.968947	19.777000	-7.047870	9.893620
0.720000	-8.653430	307.787000	22.593400	0.222509	0.000000	-1.426450	-24.561700	1.495300	7.125570	7.853670	300.237000	-23.323000	0.230800	0.000000	-0.969082	19.650400	-7.063240	9.811470
0.725000	-7.666680	309.997000	23.120500	0.221298	0.000000	-1.426440	-24.732400	1.632380	6.806430	8.381690	302.786000	-23.522800	0.230449	0.000000	-0.968596	19.657400	-7.209460	9.792530
0.730000	-7.699790	311.852000	22.308000	0.221180	0.000000	-1.427830	-24.445100	1.721960	6.804980	7.479310	303.172000	-23.227500	0.229994	0.000000	-0.967912	19.492100	-7.386290	9.675540
0.735000	-8.070670	312.652000	21.970500	0.220667	0.000000	-1.429390	-24.029200	1.907450	6.670960	7.096590	305.347000	-23.492200	0.229713	0.000000	-0.967281	19.450100	-7.415340	9.661860
0.740000	-7.899500	313.758000	22.057700	0.220236	0.000000	-1.429480	-24.083200	1.931800	6.558840	5.217750	305.022000	-22.796800	0.229807	0.000000	-0.967608	19.576000	-7.300870	9.662980
0.745000	-7.801160	315.658000	22.594200	0.220193	0.000000	-1.429730	-24.153400	2.145590	6.602820	4.781290	308.693000	-21.967300	0.230151	0.000000	-0.966988	19.636000	-7.185800	9.844000
0.750000	-7.151620	314.913000	22.862200	0.219286	0.000000	-1.431080	-23.666200	2.215160	6.305240	3.434610	308.367000	-21.376000	0.230040	0.000000	-0.966550	19.512000	-7.183710	9.790830
0.755000	-7.365430	320.479000	23.060200	0.218845	0.000000	-1.432070	-23.764800	2.145030	6.264190	3.026830	309.847000	-19.645500	0.230082	0.000000	-0.966792	19.690500	-7.301240	9.808910
0.760000	-9.242270	317.907000	23.017800	0.218210	0.000000	-1.431550	-23.763100	2.156560	6.025370	1.820570	308.098000	-17.974100	0.230472	0.000000	-0.967327	19.773500	-7.290500	9.838860
0.765000	-10.056700	319.797000	23.038700	0.217852	0.000000	-1.431730	-23.856800	2.211820	5.951780	1.916130	308.105000	-17.159900	0.229903	0.000000	-0.966750	19.593400	-7.395760	9.646960
0.770000	-11.172400	322.490000	22.624000	0.218202	0.000000	-1.432150	-23.936000	2.186370	6.110000	2.036840	308.855000	-16.180600	0.229669	0.000000	-0.967274	19.800200	-7.427030	9.570810
0.775000	-12.688500	329.139000	21.487000	0.217727	0.000000	-1.432130	-24.443900	2.096480	6.057530	2.412710	309.225000	-15.738200	0.229581	0.000000	-0.967179	19.784900	-7.475830	9.543510
0.780000	-14.732900	333.691000	20.907100	0.218812	0.000000	-1.433140	-24.468200	2.077970	6.499460	2.542630	310.729000	-14.739800	0.229786	0.000000	-0.967561	19.996100	-7.662950	9.631870
0.785000	-16.022200	335.572000	20.393000	0.218706	0.000000	-1.433190	-24.597000	1.894710	6.486500	3.118270	314.416000	-13.043400	0.229780	0.000000	-0.967433	20.179900	-7.777260	9.693850
0.790000	-17.228700	336.372000	19.792600	0.218079	0.000000	-1.433620	-24.522600	1.847840	6.284290	3.080340	313.770000	-11.326200	0.230735	0.000000	-0.967822	20.261500	-7.758770	9.929170
0.795000	-17.979600	336.004000	18.986000	0.218021	0.000000	-1.432650	-24.835300	1.867030	6.254440	3.212550	314.181000	-9.879140	0.230316	0.000000	-0.967884	20.303500	-7.902710	9.776220
0.800000	-18.554600	334.513000	17.813800	0.218980	0.000000	-1.432040	-24.939700	1.889200	6.540600	3.050580	315.293000	-9.150770	0.230371	0.000000	-0.968024	20.423900	-7.953140	9.808940
0.805000	-19.298300	336.737000	17.468000	0.217631	0.000000	-1.433180	-24.725900	1.886730	6.123850	3.352470	314.642000	-8.077430	0.230298	0.000000	-0.968211	20.431900	-8.068780	9.740870
0.810000	-20.237400	335.988000	15.788900	0.217136	0.000000	-1.433550	-24.549500	1.728270	5.920460	3.367770	316.784000	-7.716710	0.229884	0.000000	-0.968343	20.613900	-8.063010	9.663340
0.815000	-19.978100	335.294000	15.407000	0.217572	0.000000	-1.432970	-24.688800	1.668060	6.047760	3.470470	318.630000	-7.083150	0.230148	0.000000	-0.968361	20.737800	-8.117310	9.786200
0.820000	-20.688600	336.398000	15.423800	0.217542	0.000000	-1.433550	-24.585100	1.686900	6.059530	3.871200	317.924000	-5.925380	0.230241	0.000000	-0.969641	21.089000	-8.105970	9.764000
0.825000	-20.634800	338.525000	15.132700	0.217698	0.000000	-1.432240	-25.188300	1.808330	6.152150	4.753880	318.696000	-5.764040	0.230646	0.000000	-0.968009	20.595700	-8.335640	9.915110
0.830000	-20.666600	339.648000	13.977000	0.216990	0.000000	-1.433450	-24.850000	1.707950	5.912350	4.632420	318.710000	-5.118670	0.230810	0.000000	-0.969469	21.066300	-8.261580	9.949850
0.835000	-20.847000	338.913000	13.771600	0.216295	0.000000	-1.433350	-24.842000	1.826580	5.667600	5.107690	317.624000	-4.415390	0.230423	0.000000	-0.970289	21.243100	-8.259540	9.775070
0.840000	-20.350400	336.696000	12.325600	0.216245	0.000000	-1.432920	-24.812300	1.737380	5.594980	5.503790	316.959000	-3.068400	0.231133	0.000000	-0.970428	21.231300	-8.384990	9.946520
0.845000	-19.579500	338.062000	11.475900	0.216336	0.000000	-1.432320	-25.100400	1.662350	5.634500	5.718200	318.024000	-1.620910	0.230306	0.000000	-0.969746	21.079900	-8.500350	9.679670
0.850000	-20.588200	337.774000	10.504600	0.216449	0.000000	-1.432800	-24.935100	1.751480	5.662620	5.703640	318.484000	0.809227	0.230833	0.000000	-0.970137	21.236000	-8.558940	9.799170
0.855000	-20.728600	338.425000	8.868000	0.216029	0.000000	-1.433200	-24.846700	1.757390	5.513830	5.674050	320.008000	2.619680	0.231329	0.000000	-0.971916	21.909900	-8.587590	9.959170
0.860000	-20.585000	338.362000	7.682710	0.215488	0.000000	-1.432300	-25.139900	1.689760	5.315930	5.454500	319.736000	4.271550	0.232541	0.000000	-0.971778	21.851400	-8.687150	10.295300
0.865000	-20.612800	335.454000	6.502540	0.215829	0.000000	-1.431580	-25.173200	1.737610	5.375290	5.557270	322.275000	5.265630	0.231909	0.000000	-0.972507	22.259400	-8.732200	10.150000
0.870000	-20.292300	336.903000	5.229740	0.216429	0.000000	-1.432600	-24.923300	1.643610	5.584910	4.839690	324.205000	7.008790	0.232989	0.000000	-0.972901	22.539000	-8.818250	10.516800
